<?xml version="1.0" encoding="utf-8"?>
<!-- Generator: Adobe Illustrator 16.0.4, SVG Export Plug-In . SVG Version: 6.00 Build 0)  -->
<!DOCTYPE svg PUBLIC "-//W3C//DTD SVG 1.1//EN" "http://www.w3.org/Graphics/SVG/1.1/DTD/svg11.dtd">
<svg version="1.1" id="Layer_1" xmlns="http://www.w3.org/2000/svg" xmlns:xlink="http://www.w3.org/1999/xlink" x="0px" y="0px"
	 width="1024px" height="1024px" viewBox="0 0 1024 1024" enable-background="new 0 0 1024 1024" xml:space="preserve">
<path fill="#575756" d="M1024,960c0,35.346-28.652,64-64,64H64c-35.346,0-64-28.654-64-64V64C0,28.654,28.654,0,64,0h896
	c35.348,0,64,28.654,64,64V960z"/>
<circle fill="#FFFFFF" cx="512" cy="512" r="448"/>
<g>
	<path d="M488.751,665.5c-19.5,7-58,18.5-103.5,18.5c-51,0-93-13-126-44.5c-29-28-47-73-47-125.5c0.5-100.5,69.5-174,182.5-174
		c39,0,69.5,8.5,84,15.5l-10.5,35.5c-18-8-40.5-14.5-74.5-14.5c-82,0-135.5,51-135.5,135.5c0,85.5,51.5,136,130,136
		c28.5,0,48-4,58-9V538.5h-68.5v-35h111V665.5z"/>
	<path d="M811.749,665.5c-19.5,7-58,18.5-103.5,18.5c-51,0-93-13-126-44.5c-29-28-47-73-47-125.5c0.5-100.5,69.5-174,182.5-174
		c39,0,69.5,8.5,84,15.5l-10.5,35.5c-18-8-40.5-14.5-74.5-14.5c-82,0-135.5,51-135.5,135.5c0,85.5,51.5,136,130,136
		c28.5,0,48-4,58-9V538.5h-68.5v-35h111V665.5z"/>
</g>
</svg>
